<svg xmlns="http://www.w3.org/2000/svg" viewBox="0 0 72.06 72.06"><defs><style>.cls-1{fill:#237d99;}.cls-2{fill:#fff;}</style></defs><g id="Layer_2" data-name="Layer 2"><g id="Layer_1-2" data-name="Layer 1"><circle class="cls-1" cx="36.03" cy="36.03" r="36.03"/><polygon class="cls-2" points="20.19 26.2 23.56 55.54 24.13 55.54 47.93 55.54 48.49 55.54 51.87 26.2 20.19 26.2"/><path class="cls-2" d="M29,30.2a.63.63,0,0,1-.61-.52c0-.21-.86-5.19,1.77-8.32A7.31,7.31,0,0,1,36,19a7.33,7.33,0,0,1,5.91,2.41c2.64,3.13,1.84,8.1,1.8,8.32a.62.62,0,0,1-.72.51.64.64,0,0,1-.51-.72s.74-4.63-1.53-7.31a6.15,6.15,0,0,0-4.95-2,6.13,6.13,0,0,0-4.94,2c-2.26,2.68-1.51,7.26-1.5,7.31a.62.62,0,0,1-.51.72Z"/><path class="cls-2" d="M29,27.76a.62.62,0,0,1-.61-.51c0-.22-.86-5.2,1.77-8.32A7.31,7.31,0,0,1,36,16.52a7.33,7.33,0,0,1,5.91,2.41c2.64,3.12,1.84,8.1,1.8,8.31a.62.62,0,0,1-1.23-.2c0-.05.74-4.63-1.53-7.31a6.13,6.13,0,0,0-4.95-2,6.13,6.13,0,0,0-4.94,2C28.83,22.4,29.58,27,29.59,27a.62.62,0,0,1-.51.72Z"/></g></g></svg>