<svg xmlns="http://www.w3.org/2000/svg" viewBox="0 0 72.06 72.06"><defs><style>.cls-1{fill:#237d99;}.cls-2{fill:#fff;}</style></defs><g id="Layer_2" data-name="Layer 2"><g id="Layer_1-2" data-name="Layer 1"><circle class="cls-1" cx="36.03" cy="36.03" r="36.03"/><path class="cls-2" d="M37.93,37.19a5.9,5.9,0,0,0-1.63,1.07l3.05,5.09c.65-.52,1.3-1,2-1.53Z"/><path class="cls-2" d="M30,16.46A11.61,11.61,0,1,0,42.38,27.19,11.62,11.62,0,0,0,30,16.46Zm1.58,21.69A10.14,10.14,0,1,1,40.91,27.3,10.14,10.14,0,0,1,31.54,38.15Z"/><path class="cls-2" d="M30,17.27a10.14,10.14,0,0,0-9.37,10.85c0,.16,0,.33.05.49a10.13,10.13,0,0,1,20.18-1.79,1.09,1.09,0,0,1,0-.18A10.14,10.14,0,0,0,30,17.27Z"/><path class="cls-2" d="M31.59,39A11.63,11.63,0,0,1,19.22,28.71a1,1,0,0,1,0,.17,11.61,11.61,0,1,0,23.15-1.69c0-.16,0-.32-.05-.48A11.62,11.62,0,0,1,31.59,39Z"/><path class="cls-2" d="M48.87,50.7a2.66,2.66,0,0,1-.76,3.69h0a2.68,2.68,0,0,1-3.69-.76l-5-8.75c-.81-1.23-.35-1.75.88-2.56h0c1.23-.81,1.68-1,2.49.22Z"/></g></g></svg>