<svg xmlns="http://www.w3.org/2000/svg" viewBox="0 0 53.08 68.15"><defs><style>.cls-1{fill:#fdffff;}.cls-2{stroke:#fdffff;stroke-miterlimit:10;}</style></defs><g id="Layer_2" data-name="Layer 2"><g id="Layer_1-2" data-name="Layer 1"><path d="M26.54,15.06A26.55,26.55,0,1,0,53.08,41.6,26.54,26.54,0,0,0,26.54,15.06Zm0,48.34a21.8,21.8,0,1,1,21.8-21.8A21.8,21.8,0,0,1,26.54,63.4Z"/><polygon class="cls-1" points="15.33 25.71 8.21 19.33 14.32 14.8 22.82 13.6 30.04 13.97 38.36 14.15 43.54 18.13 37.62 25.62 27.08 28.21 15.33 25.71"/><path class="cls-2" d="M23.2,25.86,9.73,13H19.81l4.55,12.79c.52,0,1.05-.07,1.58-.08L21.53,13H32.64L27.41,25.67c.47,0,.94,0,1.41.08L34.38,13h9L29.85,25.86c.77.09,1.52.22,2.26.37l14.78-14L38.84.5H14.24l-8,11.69L21,26.23C21.71,26.08,22.45,26,23.2,25.86ZM43.36,11.27H35.05l3.17-7.45ZM36.79,2.88,33.51,10.6,28.36,2.88ZM32,11.27h-10l4.66-8ZM24.87,2.88,20.49,10.4,16.41,2.88ZM15,3.7l4.11,7.57H9.73Z"/></g></g></svg>