<svg xmlns="http://www.w3.org/2000/svg" viewBox="0 0 23.94 65.79"><defs><style>.cls-1{fill:#0a2138;}.cls-2{fill:#05101c;}.cls-3{fill:#ed1c24;}.cls-4{fill:#f7c378;}.cls-5{fill:#fdddba;}.cls-6{fill:#2e384c;}.cls-7{fill:#ffae4d;}.cls-8{fill:#f2911d;}.cls-9{fill:#ff9c1a;}.cls-10{fill:#ef4351;}.cls-11{fill:#fcca9b;}.cls-12{fill:#231f20;}</style></defs><g id="Layer_2" data-name="Layer 2"><g id="Layer_1-2" data-name="Layer 1"><path class="cls-1" d="M8.81,64.25H5.18c-.78,0-1.42-2.79-1.72-3.13L3,64.54c-.31.63.59,1.24,1.83,1.24H8.5c1.05,0,1.89.1,1.89-.45v-.84C10.06,64.77,9.49,64.25,8.81,64.25Z"/><path class="cls-2" d="M4.06,62.45l-.6,1.22a2.4,2.4,0,0,0,1.72.58s4.88.52,5.21.24Z"/><path class="cls-3" d="M5.14,63.4H5.07A3.36,3.36,0,0,1,1.76,60l.41-22.23c-.26-3.26,6.19-15.11,6.19-15.11l.64,21L8.56,60.12A3.36,3.36,0,0,1,5.14,63.4Z"/><path class="cls-4" d="M3.58,10.09s-.83,3.63-1.38,7.5c-.28,1.94,1.08,13.56,1.08,13.56H8.63S9.39,23.2,9.22,21c-.35-4.77-2.22-5.16-3-6.5a20.08,20.08,0,0,1,.14-3.6Z"/><path class="cls-5" d="M10,6.8a4,4,0,0,0,0-.49,4.15,4.15,0,0,0-8.3,0,4.35,4.35,0,0,0,.11,1h0a4.21,4.21,0,0,0,.73,1.54,7,7,0,0,0,1.71,2.48c.89.44,4.27,1.54,5-.11A12,12,0,0,0,10,6.8Z"/><path class="cls-6" d="M7.34,5.37s-.39-.2-.52.71a7.85,7.85,0,0,1-.72,2S5.71,6.94,5.16,6.7s-.84.07-.94.62a2.18,2.18,0,0,0,.55,1.86c.49.41.49.54-.29.87a6.74,6.74,0,0,1-1.34.41S.74,7.8.64,6.31A4.33,4.33,0,0,1,4.12,1.47C7.24.85,9,2.31,9.66,3.58s1.25,2,0,2A10,10,0,0,1,7.34,5.37Z"/><path class="cls-3" d="M1.45,16.23c.65-2.9,5-2.54,6.5,0,2.37,4,1.77,3.7,1.71,8.59-.27,3.84-.85,12.7-.85,12.7H2.17a18.63,18.63,0,0,1,0-7.41C2.37,29.1-.09,23.23,1.45,16.23Z"/><polygon class="cls-7" points="23.94 19.66 22.36 20.92 13.6 20.92 15.18 19.66 23.94 19.66"/><polygon class="cls-8" points="23.94 27.06 22.36 29.23 22.36 20.92 23.94 19.66 23.94 27.06"/><polygon class="cls-9" points="22.36 29.23 13.73 29.35 13.73 20.92 22.36 20.92 22.36 29.23"/><path class="cls-3" d="M1,8,9.62,3.39l-.45-.85a4.84,4.84,0,0,0-6.54-2L2.54.62a4.84,4.84,0,0,0-2,6.54Z"/><path class="cls-3" d="M13,1.92s.26.22-.38.92a3.57,3.57,0,0,1-1.73.82c-.25.09-2.52.42-2.52.42l.94-1.41Z"/><path class="cls-5" d="M9.62,9.32V6.68l1.19,1.94a.52.52,0,0,1-.49.7Z"/><path class="cls-10" d="M16.42,28.27,9.25,23.81S6.89,18.1,6.59,17.54A2.78,2.78,0,0,0,4.47,16.1h0l-.39,0c-1.29.13-1.87,2.52-1.27,3.66a79.21,79.21,0,0,0,4.83,7.68c.37.4,8.47,3.34,8.47,3.34Z"/><path class="cls-11" d="M16.06,28.6h0a2.3,2.3,0,0,0,0,2.06l.07.14H18.3a7.63,7.63,0,0,0,3.45-1.62c0-.22-2.59-.62-3.68-.86-.21,0,.86-.84.21-1.7-.1-.13-.29.11-.42.4-.35.79-.83.89-1.52,1.29A.69.69,0,0,0,16.06,28.6Z"/><path class="cls-12" d="M8.81,64.25H5.18c-.78,0-1.42-2.79-1.72-3.13L3,64.54c-.31.63.59,1.24,1.83,1.24H8.5c1.05,0,1.89.1,1.89-.45v-.84C10.06,64.77,9.49,64.25,8.81,64.25Z"/><path class="cls-12" d="M4.06,62.45l-.6,1.22a2.4,2.4,0,0,0,1.72.58s4.88.52,5.21.24Z"/><path class="cls-12" d="M5.14,63.4H5.07A3.36,3.36,0,0,1,1.76,60l.41-22.23c-.26-3.26,6.19-15.11,6.19-15.11l.64,21L8.56,60.12A3.36,3.36,0,0,1,5.14,63.4Z"/><path class="cls-12" d="M3.58,10.09s-.83,3.63-1.38,7.5c-.28,1.94,1.08,13.56,1.08,13.56H8.63S9.39,23.2,9.22,21c-.35-4.77-2.22-5.16-3-6.5a20.08,20.08,0,0,1,.14-3.6Z"/><path class="cls-12" d="M10,6.8a4,4,0,0,0,0-.49,4.15,4.15,0,0,0-8.3,0,4.35,4.35,0,0,0,.11,1h0a4.21,4.21,0,0,0,.73,1.54,7,7,0,0,0,1.71,2.48c.89.44,4.27,1.54,5-.11A12,12,0,0,0,10,6.8Z"/><path class="cls-12" d="M7.34,5.37s-.39-.2-.52.71a7.85,7.85,0,0,1-.72,2S5.71,6.94,5.16,6.7s-.84.07-.94.62a2.18,2.18,0,0,0,.55,1.86c.49.41.49.54-.29.87a6.74,6.74,0,0,1-1.34.41S.74,7.8.64,6.31A4.33,4.33,0,0,1,4.12,1.47C7.24.85,9,2.31,9.66,3.58s1.25,2,0,2A10,10,0,0,1,7.34,5.37Z"/><path class="cls-12" d="M1.45,16.23c.65-2.9,5-2.54,6.5,0,2.37,4,1.77,3.7,1.71,8.59-.27,3.84-.85,12.7-.85,12.7H2.17a18.63,18.63,0,0,1,0-7.41C2.37,29.1-.09,23.23,1.45,16.23Z"/><polygon class="cls-12" points="23.94 19.66 22.36 20.92 13.6 20.92 15.18 19.66 23.94 19.66"/><polygon class="cls-12" points="23.94 27.06 22.36 29.23 22.36 20.92 23.94 19.66 23.94 27.06"/><polygon class="cls-12" points="22.36 29.23 13.73 29.35 13.73 20.92 22.36 20.92 22.36 29.23"/><path class="cls-12" d="M1,8,9.62,3.39l-.45-.85a4.84,4.84,0,0,0-6.54-2L2.54.62a4.84,4.84,0,0,0-2,6.54Z"/><path class="cls-12" d="M13,1.92s.26.22-.38.92a3.57,3.57,0,0,1-1.73.82c-.25.09-2.52.42-2.52.42l.94-1.41Z"/><path class="cls-12" d="M9.62,9.32V6.68l1.19,1.94a.52.52,0,0,1-.49.7Z"/><path class="cls-12" d="M16.42,28.27,9.25,23.81S6.89,18.1,6.59,17.54A2.78,2.78,0,0,0,4.47,16.1h0l-.39,0c-1.29.13-1.87,2.52-1.27,3.66a79.21,79.21,0,0,0,4.83,7.68c.37.4,8.47,3.34,8.47,3.34Z"/><path class="cls-12" d="M16.06,28.6h0a2.3,2.3,0,0,0,0,2.06l.07.14H18.3a7.63,7.63,0,0,0,3.45-1.62c0-.22-2.59-.62-3.68-.86-.21,0,.86-.84.21-1.7-.1-.13-.29.11-.42.4-.35.79-.83.89-1.52,1.29A.69.69,0,0,0,16.06,28.6Z"/></g></g></svg>