<?xml version="1.0" encoding="utf-8"?>
<!-- Generator: Adobe Illustrator 24.1.0, SVG Export Plug-In . SVG Version: 6.00 Build 0)  -->
<svg version="1.1" id="Layer_1" xmlns="http://www.w3.org/2000/svg" xmlns:xlink="http://www.w3.org/1999/xlink" x="0px" y="0px"
	 viewBox="0 0 432 193" style="enable-background:new 0 0 432 193;" xml:space="preserve">
<style type="text/css">
	.st0{fill:none;}
	.st1{font-family:'MyriadPro-Regular';}
	.st2{font-size:12px;}
	.st3{fill:#FFFFFF;}
	.st4{fill:#161616;stroke:#FFFFFF;stroke-width:2;stroke-miterlimit:10;}
	.st5{fill:#63CBF4;}
	.st6{fill:#231F20;}
	.st7{font-family:'ArialMT';}
	.st8{font-size:56.35px;}
	.st9{fill:#2D2D2D;}
	.st10{font-family:'Arial-BoldMT';}
	.st11{font-size:19.11px;}
</style>
<g id="Layer_2_1_">
	<g id="Layer_1-2">
		<path class="st0" d="M19.6,9h401.8c5.8,0,10.6,4.7,10.6,10.6v162.8c0,5.8-4.7,10.6-10.6,10.6H19.6C13.7,193,9,188.3,9,182.4V19.6
			C9,13.7,13.7,9,19.6,9z"/>
		<text transform="matrix(1 0 0 1 15.4238 17.52)"><tspan x="0" y="0" class="st1 st2">Lorem ipsum dolor sit amet, consectetuer adipiscing elit, sed diam nonummy </tspan><tspan x="-6.4" y="14.4" class="st1 st2">nibh euismod tincidunt ut laoreet dolore magna aliquam erat volutpat. Ut wisi enim </tspan><tspan x="-6.4" y="28.8" class="st1 st2">ad minim veniam, quis nostrud exerci tation ullamcorper suscipit lobortis nisl ut </tspan><tspan x="-6.4" y="43.2" class="st1 st2">aliquip ex ea commodo consequat. Duis autem vel eum iriure dolor in hendrerit in </tspan><tspan x="-6.4" y="57.6" class="st1 st2">vulputate velit esse molestie consequat, vel illum dolore eu feugiat nulla facilisis at </tspan><tspan x="-6.4" y="72" class="st1 st2">vero eros et accumsan et iusto odio dignissim qui blandit praesent luptatum zzril </tspan><tspan x="-6.4" y="86.4" class="st1 st2">delenit augue duis dolore te feugait nulla facilisi.</tspan><tspan x="-6.4" y="100.8" class="st1 st2">Lorem ipsum dolor sit amet, cons ectetuer adipiscing elit, sed diam nonummy nibh </tspan><tspan x="-6.4" y="115.2" class="st1 st2">euismod tincidunt ut laoreet dolore magna aliquam erat volutpat. Ut wisi enim ad </tspan><tspan x="-6.4" y="129.6" class="st1 st2">minim veniam, quis nostrud exerci tation ullamcorper suscipit lobortis nisl ut aliquip </tspan><tspan x="-6.4" y="144" class="st1 st2">ex ea commodo consequat.</tspan><tspan x="-6.4" y="158.4" class="st1 st2">Lorem ipsum dolor sit amet, consectetuer adipiscing elit, sed diam nonummy nibh </tspan><tspan x="-2.9" y="172.8" class="st1 st2">euismod tincidunt ut laoreet dolore magna aliquam erat volutpat. Ut wisi enim ad </tspan></text>
		<path class="st3" d="M10.6,0h401.8c5.8,0,10.6,4.7,10.6,10.6v162.8c0,5.8-4.7,10.6-10.6,10.6H10.6C4.7,184,0,179.3,0,173.4V10.6
			C0,4.7,4.7,0,10.6,0z"/>
		<circle class="st4" cx="243.2" cy="66.4" r="14.5"/>
		<circle class="st5" cx="227.1" cy="54.9" r="3.6"/>
		<circle class="st5" cx="232.9" cy="49.8" r="3.6"/>
		<circle class="st5" cx="224" cy="61.9" r="3.6"/>
		<circle class="st5" cx="223.7" cy="69.6" r="3.6"/>
		<circle class="st5" cx="226.3" cy="76.8" r="3.6"/>
		<circle class="st5" cx="231.6" cy="82.3" r="3.6"/>
		<circle class="st5" cx="238.5" cy="85.5" r="3.6"/>
		<circle class="st5" cx="246.2" cy="85.8" r="3.6"/>
		
			<ellipse transform="matrix(0.1602 -0.9871 0.9871 0.1602 130.8748 320.1449)" class="st5" cx="253.6" cy="83.2" rx="3.6" ry="3.6"/>
		<circle class="st5" cx="259.1" cy="78" r="3.6"/>
		<circle class="st5" cx="262.3" cy="70.9" r="3.6"/>
		<circle class="st5" cx="262.7" cy="63.2" r="3.6"/>
		<circle class="st5" cx="259.8" cy="56.1" r="3.6"/>
		
			<ellipse transform="matrix(0.2298 -0.9732 0.9732 0.2298 146.9939 286.8148)" class="st5" cx="254.7" cy="50.5" rx="3.6" ry="3.6"/>
		<circle class="st5" cx="247.8" cy="47.4" r="3.6"/>
		<circle class="st5" cx="240.1" cy="47" r="3.6"/>
		<text transform="matrix(1 0 0 1 66.79 131.03)" class="st6 st7 st8">buy</text>
		<text transform="matrix(1 0 0 1 156.43 131.03)" class="st6 st7 st8">m</text>
		<text transform="matrix(1 0 0 1 202.69 131.03)" class="st6 st7 st8">yJe</text>
		<text transform="matrix(1 0 0 1 278.31 131.03)" class="st6 st7 st8"> w </text>
		<text transform="matrix(1 0 0 1 319.22 131.03)" class="st6 st7 st8">el</text>
		<text transform="matrix(1 0 0 1 95.02 160.59)" class="st9 st10 st11">Je</text>
		<text transform="matrix(1 0 0 1 111.67 160.59)" class="st9 st10 st11">w</text>
		<text transform="matrix(1 0 0 1 125.54 160.59)" class="st9 st10 st11">elle</text>
		<text transform="matrix(1 0 0 1 153.71 160.59)" class="st9 st10 st11">r</text>
		<text transform="matrix(1 0 0 1 160.43 160.59)" class="st9 st10 st11">y (un) </text>
		<text transform="matrix(1 0 0 1 205.48 160.59)" class="st9 st10 st11">c</text>
		<text transform="matrix(1 0 0 1 213.92 160.59)" class="st9 st10 st11">o</text>
		<text transform="matrix(1 0 0 1 224.42 160.59)" class="st9 st10 st11">n</text>
		<text transform="matrix(1 0 0 1 234.77 160.59)" class="st9 st10 st11">v</text>
		<text transform="matrix(1 0 0 1 243.77 160.59)" class="st9 st10 st11">e</text>
		<text transform="matrix(1 0 0 1 253.35 160.59)" class="st9 st10 st11">n</text>
		<text transform="matrix(1 0 0 1 263.88 160.59)" class="st9 st10 st11">tionally</text>
		<rect x="71" y="153" class="st9" width="22" height="2"/>
		<rect x="334" y="153" class="st9" width="22" height="2"/>
	</g>
</g>
</svg>
